<svg xmlns="http://www.w3.org/2000/svg" xmlns:xlink="http://www.w3.org/1999/xlink" width="50" zoomAndPan="magnify" viewBox="0 0 37.5 37.499999" height="50" preserveAspectRatio="xMidYMid meet" version="1.0"><defs><clipPath id="f987b95575"><path d="M 0 0 L 37.007812 0 L 37.007812 37.007812 L 0 37.007812 Z M 0 0 " clip-rule="nonzero"/></clipPath><clipPath id="d8903f4c76"><path d="M 18.503906 0 C 8.285156 0 0 8.285156 0 18.503906 C 0 28.722656 8.285156 37.007812 18.503906 37.007812 C 28.722656 37.007812 37.007812 28.722656 37.007812 18.503906 C 37.007812 8.285156 28.722656 0 18.503906 0 Z M 18.503906 0 " clip-rule="nonzero"/></clipPath><clipPath id="84bab1c51e"><path d="M 0.328125 0 L 36.65625 0 L 36.65625 37 L 0.328125 37 Z M 0.328125 0 " clip-rule="nonzero"/></clipPath></defs><g clip-path="url(#f987b95575)"><g clip-path="url(#d8903f4c76)"><path fill="#ffffff" d="M 0 0 L 37.007812 0 L 37.007812 37.007812 L 0 37.007812 Z M 0 0 " fill-opacity="1" fill-rule="nonzero"/></g></g><g clip-path="url(#84bab1c51e)"><path fill="#003070" d="M 18.503906 0.015625 C 14.324219 0.015625 10.472656 1.425781 7.402344 3.800781 C 5.59375 1.824219 4.707031 0.015625 4.707031 0.015625 C 5.765625 5.085938 9.09375 9.636719 13.601562 12.175781 C 15.449219 13.214844 17.460938 13.925781 19.410156 14.761719 C 19.582031 14.835938 19.75 14.910156 19.917969 14.988281 C 18.960938 14.339844 16.910156 13.273438 16.910156 13.273438 C 20.136719 14.273438 23.539062 15.386719 25.738281 17.941406 C 27.667969 20.183594 28.390625 23.414062 27.601562 26.265625 C 26.808594 29.121094 24.523438 31.507812 21.710938 32.4375 C 23.195312 31.164062 24.066406 29.210938 24.027344 27.261719 C 23.988281 25.308594 23.269531 23.773438 21.679688 22.644531 C 18.632812 20.472656 14.582031 20.351562 11.1875 19.085938 C 6.976562 17.515625 4.019531 13.082031 4.191406 8.597656 C 5.191406 11.9375 8.148438 14.382812 11.222656 15.953125 C 13.046875 16.882812 14.851562 17.382812 16.789062 18.039062 C 18.726562 18.695312 20.8125 19.140625 22.402344 20.429688 C 23.988281 21.722656 25.238281 23.988281 25.300781 26.03125 C 25.707031 23.949219 24.710938 21.777344 23.1875 20.304688 C 21.660156 18.828125 19.664062 17.945312 17.671875 17.21875 C 15.679688 16.492188 13.621094 15.886719 11.769531 14.851562 C 9.21875 13.425781 7.128906 11.199219 5.871094 8.5625 C 5.492188 7.761719 5.191406 6.925781 4.964844 6.066406 C 2.082031 9.28125 0.328125 13.53125 0.328125 18.191406 C 0.328125 24.320312 3.359375 29.738281 8.003906 33.027344 C 13.59375 36.988281 21.230469 36.5 26.136719 31.71875 C 27.859375 30.042969 29.175781 27.902344 29.390625 25.226562 C 29.835938 19.785156 26.21875 16.214844 24.40625 14.78125 C 23.808594 14.328125 23.410156 14.070312 23.410156 14.070312 C 25.554688 11.609375 28.183594 11.3125 28.183594 11.3125 C 25.746094 10.730469 25.589844 8.617188 25.589844 8.617188 C 25.785156 10.269531 30.679688 9.917969 31.875 10.761719 C 33.070312 11.609375 33.082031 12.996094 33.082031 12.996094 C 31.980469 11.960938 30.742188 12.226562 31.125 12.722656 C 31.507812 13.214844 33.589844 12.875 34.785156 13.480469 C 35.648438 13.917969 35.449219 14.765625 35.449219 14.765625 C 35.136719 13.386719 31.089844 14.507812 31.089844 14.507812 L 30.660156 14.382812 L 31.054688 14.628906 C 30.535156 15.710938 30.230469 17.742188 30.054688 19.417969 C 30.085938 19.480469 30.113281 19.546875 30.140625 19.613281 C 31.902344 23.78125 32.972656 32.488281 18.714844 36.363281 C 28.648438 36.246094 36.667969 28.152344 36.667969 18.1875 C 36.675781 8.152344 28.542969 0.015625 18.503906 0.015625 Z M 7.796875 21.40625 C 7.796875 21.40625 9.460938 23.699219 15.976562 23.824219 C 18.183594 23.867188 19.832031 24.289062 20.972656 24.960938 C 20.039062 24.304688 18.6875 23.75 16.734375 23.472656 C 9.765625 22.5 6.679688 22.273438 6.167969 17.132812 C 6.167969 17.132812 7.28125 20.160156 15.589844 21.246094 C 25.390625 22.523438 22.96875 29.109375 22.886719 29.460938 C 22.886719 29.460938 22.980469 25.628906 17.144531 25.542969 C 11.304688 25.457031 8.746094 25.585938 7.796875 21.40625 Z M 7.796875 21.40625 " fill-opacity="1" fill-rule="nonzero"/></g></svg>