<svg xmlns="http://www.w3.org/2000/svg" xmlns:xlink="http://www.w3.org/1999/xlink" width="800" zoomAndPan="magnify" viewBox="0 0 600 599.999999" height="800" preserveAspectRatio="xMidYMid meet" version="1.0"><defs><clipPath id="ae19c8e615"><path d="M 23.878906 19 L 575.878906 19 L 575.878906 572 L 23.878906 572 Z M 23.878906 19 " clip-rule="nonzero"/></clipPath></defs><g clip-path="url(#ae19c8e615)"><path fill="#ffffff" d="M 299.996094 19.15625 C 236.527344 19.15625 177.980469 40.566406 131.347656 76.644531 C 103.894531 46.609375 90.402344 19.15625 90.402344 19.15625 C 106.472656 96.175781 157.039062 165.28125 225.554688 203.878906 C 253.597656 219.660156 284.160156 230.453125 313.78125 243.179688 C 316.363281 244.296875 318.945312 245.410156 321.464844 246.582031 C 306.976562 236.730469 275.828125 220.539062 275.828125 220.539062 C 324.808594 235.730469 376.492188 252.625 409.925781 291.460938 C 439.257812 325.542969 450.226562 374.582031 438.203125 417.933594 C 426.175781 461.28125 391.449219 497.59375 348.742188 511.671875 C 371.269531 492.375 384.527344 462.691406 383.941406 433.066406 C 383.355469 403.382812 372.441406 380.097656 348.273438 362.910156 C 301.992188 329.941406 240.457031 328.0625 188.835938 308.882812 C 124.894531 285.007812 79.960938 217.664062 82.539062 149.5 C 97.734375 200.242188 142.667969 237.375 189.421875 261.25 C 217.109375 275.386719 244.503906 282.953125 273.953125 292.925781 C 303.398438 302.898438 335.074219 309.703125 359.246094 329.296875 C 383.355469 348.886719 402.300781 383.324219 403.296875 414.355469 C 409.457031 382.734375 394.324219 349.769531 371.152344 327.359375 C 347.980469 304.953125 317.652344 291.519531 287.382812 280.488281 C 257.117188 269.460938 225.847656 260.25 197.691406 244.53125 C 158.976562 222.886719 127.179688 189.039062 108.117188 148.972656 C 102.308594 136.828125 97.734375 124.101562 94.332031 111.078125 C 50.511719 159.882812 23.878906 224.46875 23.878906 295.273438 C 23.878906 388.367188 69.929688 470.667969 140.496094 520.648438 C 225.4375 580.835938 341.410156 573.441406 415.96875 500.761719 C 442.132812 475.304688 462.136719 442.804688 465.421875 402.152344 C 472.167969 319.5 417.203125 265.238281 389.6875 243.476562 C 380.597656 236.554688 374.554688 232.679688 374.554688 232.679688 C 407.113281 195.253906 447.058594 190.738281 447.058594 190.738281 C 410.042969 181.941406 407.640625 149.792969 407.640625 149.792969 C 410.632812 174.898438 485.011719 169.5625 503.140625 182.410156 C 521.324219 195.253906 521.5 216.316406 521.5 216.316406 C 504.78125 200.59375 485.953125 204.640625 491.757812 212.148438 C 497.566406 219.660156 529.183594 214.496094 547.371094 223.707031 C 560.453125 230.335938 557.460938 243.238281 557.460938 243.238281 C 552.707031 222.238281 491.230469 239.308594 491.230469 239.308594 L 484.71875 237.375 L 490.703125 241.128906 C 482.785156 257.554688 478.148438 288.410156 475.511719 313.867188 C 475.980469 314.867188 476.390625 315.863281 476.800781 316.859375 C 503.550781 380.214844 519.859375 512.492188 303.222656 571.332031 C 454.15625 569.570312 575.996094 446.617188 575.996094 295.214844 C 576.113281 142.753906 452.515625 19.15625 299.996094 19.15625 Z M 137.328125 344.078125 C 137.328125 344.078125 162.613281 378.921875 261.632812 380.859375 C 295.128906 381.503906 320.175781 387.898438 337.539062 398.105469 C 323.34375 388.132812 302.8125 379.6875 273.128906 375.519531 C 167.246094 360.738281 120.375 357.277344 112.574219 279.199219 C 112.574219 279.199219 129.527344 325.191406 255.765625 341.671875 C 404.648438 361.089844 367.867188 461.105469 366.578125 466.503906 C 366.578125 466.503906 368.042969 408.253906 279.347656 406.964844 C 190.652344 405.671875 151.761719 407.609375 137.328125 344.078125 Z M 137.328125 344.078125 " fill-opacity="1" fill-rule="nonzero"/></g></svg>