<svg xmlns="http://www.w3.org/2000/svg" xmlns:xlink="http://www.w3.org/1999/xlink" width="800" zoomAndPan="magnify" viewBox="0 0 600 599.999999" height="800" preserveAspectRatio="xMidYMid meet" version="1.0"><defs><clipPath id="0ce494bfaa"><path d="M 97.921875 97.921875 L 502.078125 97.921875 L 502.078125 502.078125 L 97.921875 502.078125 Z M 97.921875 97.921875 " clip-rule="nonzero"/></clipPath><clipPath id="1a8743e079"><path d="M 300 97.921875 C 188.394531 97.921875 97.921875 188.394531 97.921875 300 C 97.921875 411.605469 188.394531 502.078125 300 502.078125 C 411.605469 502.078125 502.078125 411.605469 502.078125 300 C 502.078125 188.394531 411.605469 97.921875 300 97.921875 Z M 300 97.921875 " clip-rule="nonzero"/></clipPath><clipPath id="31ec3289f2"><path d="M 101.507812 98 L 498.257812 98 L 498.257812 496 L 101.507812 496 Z M 101.507812 98 " clip-rule="nonzero"/></clipPath></defs><rect x="-60" width="720" fill="#ffffff" y="-60" height="719.999999" fill-opacity="1"/><rect x="-60" width="720" fill="#ffffff" y="-60" height="719.999999" fill-opacity="1"/><g clip-path="url(#0ce494bfaa)"><g clip-path="url(#1a8743e079)"><path fill="#ffffff" d="M 97.921875 97.921875 L 502.078125 97.921875 L 502.078125 502.078125 L 97.921875 502.078125 Z M 97.921875 97.921875 " fill-opacity="1" fill-rule="nonzero"/></g></g><g clip-path="url(#31ec3289f2)"><path fill="#003070" d="M 299.996094 98.113281 C 254.371094 98.113281 212.285156 113.507812 178.761719 139.441406 C 159.027344 117.851562 149.328125 98.113281 149.328125 98.113281 C 160.882812 153.480469 197.230469 203.15625 246.484375 230.902344 C 266.640625 242.246094 288.609375 250.003906 309.90625 259.15625 C 311.761719 259.957031 313.617188 260.757812 315.429688 261.601562 C 305.015625 254.515625 282.621094 242.878906 282.621094 242.878906 C 317.832031 253.800781 354.984375 265.945312 379.019531 293.859375 C 400.101562 318.359375 407.988281 353.613281 399.34375 384.773438 C 390.699219 415.9375 365.734375 442.039062 335.039062 452.160156 C 351.230469 438.285156 360.761719 416.949219 360.339844 395.65625 C 359.917969 374.316406 352.074219 357.578125 334.699219 345.222656 C 301.429688 321.523438 257.195312 320.171875 220.085938 306.382812 C 174.125 289.222656 141.824219 240.8125 143.675781 191.8125 C 154.597656 228.289062 186.898438 254.980469 220.507812 272.144531 C 240.410156 282.304688 260.105469 287.746094 281.273438 294.914062 C 302.441406 302.082031 325.210938 306.972656 342.585938 321.058594 C 359.917969 335.144531 373.539062 359.894531 374.253906 382.203125 C 378.683594 359.472656 367.800781 335.777344 351.144531 319.667969 C 334.488281 303.558594 312.6875 293.902344 290.929688 285.976562 C 269.171875 278.046875 246.695312 271.425781 226.453125 260.125 C 198.621094 244.566406 175.769531 220.234375 162.0625 191.433594 C 157.886719 182.703125 154.597656 173.554688 152.152344 164.191406 C 120.652344 199.277344 101.507812 245.703125 101.507812 296.601562 C 101.507812 363.523438 134.613281 422.683594 185.339844 458.613281 C 246.398438 501.875 329.765625 496.5625 383.363281 444.316406 C 402.167969 426.015625 416.550781 402.65625 418.910156 373.433594 C 423.757812 314.015625 384.246094 275.011719 364.472656 259.367188 C 357.933594 254.390625 353.589844 251.609375 353.589844 251.609375 C 376.996094 224.703125 405.710938 221.457031 405.710938 221.457031 C 379.101562 215.132812 377.375 192.023438 377.375 192.023438 C 379.523438 210.070312 432.996094 206.234375 446.023438 215.46875 C 459.097656 224.703125 459.222656 239.84375 459.222656 239.84375 C 447.207031 228.542969 433.667969 231.449219 437.84375 236.847656 C 442.019531 242.246094 464.746094 238.535156 477.820312 245.15625 C 487.222656 249.921875 485.074219 259.199219 485.074219 259.199219 C 481.65625 244.101562 437.464844 256.371094 437.464844 256.371094 L 432.785156 254.980469 L 437.085938 257.679688 C 431.390625 269.488281 428.0625 291.667969 426.164062 309.96875 C 426.5 310.683594 426.796875 311.402344 427.089844 312.117188 C 446.320312 357.660156 458.042969 452.75 302.316406 495.046875 C 410.8125 493.78125 498.398438 405.394531 498.398438 296.558594 C 498.480469 186.964844 409.632812 98.113281 299.996094 98.113281 Z M 183.0625 331.683594 C 183.0625 331.683594 201.238281 356.734375 272.417969 358.125 C 296.496094 358.589844 314.5 363.183594 326.984375 370.523438 C 316.777344 363.355469 302.019531 357.28125 280.683594 354.289062 C 204.570312 343.660156 170.875 341.171875 165.269531 285.046875 C 165.269531 285.046875 177.453125 318.105469 268.199219 329.957031 C 375.222656 343.914062 348.785156 415.8125 347.855469 419.691406 C 347.855469 419.691406 348.910156 377.816406 285.152344 376.890625 C 221.394531 375.960938 193.4375 377.355469 183.0625 331.683594 Z M 183.0625 331.683594 " fill-opacity="1" fill-rule="nonzero"/></g></svg>